# xmcd CD database file
#
# Track frame offsets:
#	150
#	21426
#	37936
#	52878
#	69954
#	86496
#	106342
#	122334
#	139943
#	151947
#	169286
#
# Disc length: 2498 seconds
#
# Revision: 1
# Processed by: cddbd v1.4PL0 Copyright (c) Steve Scherf et al.
# Submitted via: CDex 1.50Beta7
#
DISCID=8409c00b
DTITLE=The Brothers - Fri fantasi
DYEAR=2002
DGENRE=Country
TTITLE0=Like a Storm
TTITLE1=Haikeren
TTITLE2=Graham
TTITLE3=Jorden vår
TTITLE4=Hvor er alle Gudene
TTITLE5=Lonely Eyes of You
TTITLE6=Sjef i eget slott
TTITLE7=Godstolen
TTITLE8=Lord Almighty
TTITLE9=Times Are Different Now
TTITLE10=Originalen
EXTD=YEAR: 2002
EXTT0=
EXTT1=
EXTT2=
EXTT3=
EXTT4=
EXTT5=
EXTT6=
EXTT7=
EXTT8=
EXTT9=
EXTT10=
PLAYORDER=
